<?xml version="1.0" standalone="no"?>
<!DOCTYPE svg PUBLIC "-//W3C//DTD SVG 20010904//EN"
 "http://www.w3.org/TR/2001/REC-SVG-20010904/DTD/svg10.dtd">
<svg version="1.0" xmlns="http://www.w3.org/2000/svg"
 width="487.000000pt" height="487.000000pt" viewBox="0 0 487.000000 487.000000"
 preserveAspectRatio="xMidYMid meet">
<metadata>
Created by potrace 1.14, written by Peter Selinger 2001-2017
</metadata>
<g transform="translate(0.000000,487.000000) scale(0.100000,-0.100000)"
fill="#000000" stroke="none">
<path d="M3930 4779 c-58 -34 -118 -69 -133 -78 -16 -9 -36 -20 -45 -26 -9 -5
-43 -25 -75 -43 l-57 -34 3 -431 c3 -238 7 -443 10 -457 3 -14 11 -63 17 -110
7 -47 13 -96 16 -110 2 -14 6 -45 9 -70 3 -25 7 -55 9 -67 3 -12 7 -46 10 -75
4 -29 8 -62 10 -73 2 -11 7 -42 10 -70 4 -27 9 -61 11 -75 6 -42 17 -123 21
-160 2 -19 6 -46 9 -60 17 -88 20 -198 18 -850 -1 -399 -2 -883 -2 -1077 l-1
-352 -290 0 -290 0 -128 -67 c-70 -36 -131 -70 -136 -75 -6 -5 -16 -9 -24 -9
-32 0 -47 -35 -45 -106 0 -38 2 -74 2 -80 1 -6 43 -33 94 -59 50 -26 125 -66
166 -87 76 -41 90 -43 181 -24 14 3 43 7 65 10 22 2 87 12 145 22 58 9 120 17
137 18 18 0 33 3 33 6 0 3 12 6 28 5 38 -1 53 18 50 61 -1 24 3 39 13 44 11 6
15 21 13 47 -5 63 -6 284 -2 288 2 2 57 -24 123 -57 66 -34 178 -90 248 -125
l129 -64 51 17 c77 25 329 114 352 124 11 5 36 14 56 20 32 9 38 17 49 55 7
25 17 45 21 45 5 0 9 7 9 15 0 9 6 28 14 44 12 22 16 163 22 807 10 1131 11
1305 3 1344 -10 47 -14 66 -39 195 -21 107 -25 130 -34 178 -2 12 -12 63 -21
112 -10 50 -19 97 -20 105 -1 8 -5 29 -9 45 -3 17 -9 44 -11 60 -3 17 -9 53
-15 80 -6 28 -13 66 -16 85 -3 19 -7 43 -10 52 -3 10 -7 30 -10 45 -3 16 -7
39 -10 53 -33 155 -34 185 -35 573 -1 359 -3 397 -18 398 -9 0 -25 2 -36 5
-11 2 -40 6 -65 9 -25 3 -55 8 -67 10 -12 3 -41 7 -65 10 -24 3 -54 7 -68 10
-14 2 -50 7 -80 10 -30 4 -64 9 -75 11 -101 21 -115 17 -225 -47z"/>
<path d="M1570 4394 c-114 -66 -150 -86 -245 -139 l-50 -27 -1 -312 c0 -171
-4 -329 -8 -351 -3 -22 -9 -51 -11 -65 -8 -47 -45 -275 -51 -310 -3 -19 -10
-62 -15 -95 -6 -33 -13 -71 -15 -85 -10 -71 -13 -88 -19 -120 -3 -19 -8 -46
-10 -60 -7 -45 -16 -104 -23 -140 -4 -19 -7 -158 -6 -307 0 -150 -3 -273 -8
-273 -4 0 -8 4 -8 9 0 5 -16 43 -35 84 -19 42 -37 88 -41 104 -4 15 -7 117 -7
225 l1 198 -170 85 c-96 49 -176 84 -186 81 -9 -3 -39 -8 -67 -11 -27 -4 -61
-8 -75 -10 -46 -8 -95 -15 -130 -19 -58 -8 -124 -17 -150 -22 -14 -2 -51 -7
-83 -11 l-57 -6 -50 -82 -50 -83 0 -205 0 -205 91 -209 c89 -204 104 -237 149
-338 21 -48 22 -62 24 -355 l1 -305 -80 -160 c-45 -88 -98 -190 -118 -227 -20
-36 -37 -70 -37 -75 0 -4 10 -8 23 -9 26 -1 112 -12 144 -18 12 -3 48 -7 80
-11 32 -3 67 -8 78 -10 11 -3 40 -7 65 -10 82 -9 134 -16 191 -25 31 -5 64 -7
73 -6 15 2 186 86 196 96 3 3 38 20 78 39 39 19 72 37 72 40 0 3 15 30 33 59
l33 52 0 -226 c-1 -124 1 -229 4 -233 7 -9 69 -44 213 -121 111 -58 122 -61
165 -55 129 17 167 23 167 25 0 1 16 3 35 5 19 2 78 11 130 19 52 9 120 19
150 22 30 4 57 8 60 11 2 2 5 178 6 391 0 213 2 389 3 392 0 3 38 5 83 5 l81
0 28 80 c48 136 55 179 45 245 -8 48 -22 165 -31 255 -2 22 -8 69 -13 105 -6
36 -10 72 -10 80 0 8 -4 35 -7 60 -13 80 -15 670 -3 670 6 0 9 -2 6 -5 -3 -3
3 -34 14 -68 62 -196 80 -254 84 -272 2 -11 8 -31 13 -45 42 -115 43 -124 43
-486 0 -218 -4 -359 -10 -371 -6 -10 -29 -70 -52 -133 -23 -63 -48 -128 -55
-145 -16 -37 -125 -351 -132 -381 -5 -24 5 -28 107 -39 30 -4 66 -8 80 -10 14
-2 50 -7 80 -10 30 -3 66 -8 80 -10 88 -13 155 -21 250 -30 l65 -6 165 83 c91
46 166 90 168 98 2 8 26 83 54 165 28 83 51 155 53 160 1 6 5 17 8 25 3 8 33
97 66 198 l61 183 1 337 c2 337 2 337 -24 422 -15 47 -40 132 -57 190 -17 58
-42 142 -56 187 -13 46 -35 120 -49 165 -13 46 -31 106 -39 133 -12 39 -16
105 -16 310 l-1 260 -146 105 c-80 58 -152 112 -161 120 -16 16 -70 18 -142 6
-61 -10 -87 -13 -142 -20 -26 -3 -58 -8 -70 -10 -22 -5 -36 -7 -141 -21 l-49
-7 7 99 c11 135 14 723 4 718 -4 -3 -38 -1 -76 4 -37 6 -90 13 -118 16 -27 3
-66 8 -85 11 -101 14 -166 22 -245 29 -60 5 -61 5 -175 -61z"/>
</g>
</svg>
